<?xml version="1.0" encoding="UTF-8"?>
<svg xmlns="http://www.w3.org/2000/svg" xmlns:xlink="http://www.w3.org/1999/xlink" width="20px" height="20px" viewBox="0 0 20 20" version="1.1">
<g id="surface1">
<path style="fill:none;stroke-width:4;stroke-linecap:round;stroke-linejoin:round;stroke:rgb(13.333333%,18.431373%,24.313725%);stroke-opacity:1;stroke-miterlimit:4;" d="M 55.527344 6.398438 L 7.402344 54.484375 C -2.109375 63.976562 -2.109375 79.347656 7.382812 88.839844 C 16.894531 98.3125 32.285156 98.3125 41.777344 88.820312 L 89.921875 40.753906 M 81.660156 32.511719 L 44.53125 69.582031 C 39.589844 74.523438 31.582031 74.523438 26.640625 69.601562 C 21.699219 64.660156 21.699219 56.671875 26.660156 51.730469 L 53.378906 25.03125 M 81.660156 32.511719 C 89.277344 24.914062 89.589844 12.921875 82.363281 5.714844 C 75.136719 -1.492188 63.125 -1.179688 55.527344 6.398438 M 81.660156 32.511719 L 81.660156 32.511719 " transform="matrix(0.2,0,0,0.2,1,0.4)"/>
</g>
</svg>
