<?xml version="1.0" encoding="UTF-8"?>
<svg xmlns="http://www.w3.org/2000/svg" xmlns:xlink="http://www.w3.org/1999/xlink" width="24px" height="24px" viewBox="0 0 24 24" version="1.1">
<g id="surface1">
<path style=" stroke:none;fill-rule:nonzero;fill:rgb(11.372549%,11.372549%,10.588235%);fill-opacity:1;" d="M 12 6.75 C 9.105469 6.75 6.75 9.105469 6.75 12 C 6.75 14.894531 9.105469 17.25 12 17.25 C 14.894531 17.25 17.25 14.894531 17.25 12 C 17.25 9.105469 14.894531 6.75 12 6.75 Z M 12 15.75 C 9.929688 15.75 8.25 14.070312 8.25 12 C 8.25 9.929688 9.929688 8.25 12 8.25 C 14.070312 8.25 15.75 9.929688 15.75 12 C 15.75 14.070312 14.070312 15.75 12 15.75 Z M 12 5.25 C 12.414062 5.25 12.75 4.914062 12.75 4.5 L 12.75 3 C 12.75 2.585938 12.414062 2.25 12 2.25 C 11.585938 2.25 11.25 2.585938 11.25 3 L 11.25 4.5 C 11.25 4.914062 11.585938 5.25 12 5.25 Z M 12 18.75 C 11.585938 18.75 11.25 19.085938 11.25 19.5 L 11.25 21 C 11.25 21.414062 11.585938 21.75 12 21.75 C 12.414062 21.75 12.75 21.414062 12.75 21 L 12.75 19.5 C 12.75 19.085938 12.414062 18.75 12 18.75 Z M 17.832031 7.226562 L 18.894531 6.167969 C 19.1875 5.875 19.1875 5.398438 18.894531 5.105469 C 18.601562 4.8125 18.125 4.8125 17.832031 5.105469 L 16.773438 6.167969 C 16.480469 6.460938 16.480469 6.933594 16.773438 7.226562 C 17.066406 7.519531 17.539062 7.519531 17.832031 7.226562 Z M 6.167969 16.773438 L 5.105469 17.835938 C 4.8125 18.125 4.8125 18.601562 5.105469 18.894531 C 5.398438 19.1875 5.875 19.1875 6.167969 18.894531 L 7.226562 17.835938 C 7.519531 17.539062 7.519531 17.066406 7.226562 16.773438 C 6.933594 16.480469 6.460938 16.480469 6.167969 16.773438 Z M 5.25 12 C 5.25 11.585938 4.914062 11.25 4.5 11.25 L 3 11.25 C 2.585938 11.25 2.25 11.585938 2.25 12 C 2.25 12.414062 2.585938 12.75 3 12.75 L 4.5 12.75 C 4.914062 12.75 5.25 12.414062 5.25 12 Z M 21 11.25 L 19.5 11.25 C 19.085938 11.25 18.75 11.585938 18.75 12 C 18.75 12.414062 19.085938 12.75 19.5 12.75 L 21 12.75 C 21.414062 12.75 21.75 12.414062 21.75 12 C 21.75 11.585938 21.414062 11.25 21 11.25 Z M 6.164062 7.226562 C 6.460938 7.519531 6.933594 7.519531 7.226562 7.226562 C 7.519531 6.933594 7.519531 6.460938 7.226562 6.167969 L 6.164062 5.105469 C 5.871094 4.8125 5.398438 4.8125 5.105469 5.105469 C 4.8125 5.398438 4.8125 5.875 5.105469 6.167969 Z M 17.835938 16.773438 C 17.539062 16.480469 17.066406 16.480469 16.773438 16.773438 C 16.480469 17.066406 16.480469 17.539062 16.773438 17.832031 L 17.835938 18.894531 C 18.125 19.1875 18.601562 19.1875 18.894531 18.894531 C 19.1875 18.601562 19.1875 18.125 18.894531 17.832031 Z M 17.835938 16.773438 "/>
</g>
</svg>
